<svg width="81" height="81" viewBox="0 0 81 81" fill="none" xmlns="http://www.w3.org/2000/svg">
<path d="M50.4344 13.3122C49.1065 3.48589 38.5941 0.586686 33.5039 0.365373C40.94 -0.696929 47.2253 0.807999 49.4384 1.69325C60.0615 4.34901 62.2746 14.3081 62.0533 18.9557C73.473 18.9557 76.5493 27.3656 76.66 31.5705C76.3944 43.2558 71.2378 45.9559 68.6927 45.8452V30.5746H50.4344V13.3122Z" fill="#5FBCC9"/>
<path d="M68.6931 50.1603H50.4348H50.1028V68.7506H34.5003C38.7495 78.3114 49.3282 77.3819 54.0865 75.722C60.9914 72.5351 62.2751 65.3203 62.0537 62.1113C66.0374 62.3768 70.5743 60.0088 72.3448 58.7916C81.9055 52.6833 81.4186 39.4267 79.9801 33.5619C81.0424 43.3882 72.8981 48.7218 68.6931 50.1603Z" fill="#5FBCC9"/>
<path d="M12.2583 50.1603V34.5578C7.21234 35.8857 5.28693 41.3078 4.95497 43.8529C2.56479 59.5219 13.4755 62.5539 19.2297 62.1113C19.5616 68.4187 19.8936 68.0867 19.8936 68.7506C23.8772 80.1704 39.7011 81.2548 47.1151 80.3696C36.2265 79.5729 31.5125 72.2916 30.5166 68.7506V50.1603H12.2583Z" fill="#5FBCC9"/>
<path d="M12.2583 30.5741C3.22871 33.2299 0.750037 42.9677 0.639403 47.5046C-1.21963 41.1308 1.414 31.7914 2.96319 27.9184C7.2124 19.9511 15.3567 18.6232 18.8977 18.9552C18.101 8.59774 26.0904 4.90182 30.1847 4.34855C39.4798 2.75509 44.902 8.77481 46.4512 11.9838H30.5167L30.5166 12.6478V30.5741H12.2583Z" fill="#5FBCC9"/>
<circle cx="6.63939" cy="8.63109" r="6.63939" fill="#DFFAFF"/>
<circle cx="74.362" cy="73.6975" r="6.63939" fill="#DFFAFF"/>
<circle cx="74.362" cy="8.63109" r="6.63939" fill="#4893A1"/>
<circle cx="6.63939" cy="73.6975" r="6.63939" fill="#4893A1"/>
<path d="M30.4117 30.536H12.0393C3.78208 32.848 0.754427 42.3714 0.272755 46.8441C-1.04841 35.9445 2.74993 27.8524 4.81424 25.1688C8.77772 19.5539 15.8239 18.7006 18.8516 18.9758C17.8607 8.40656 26.1455 4.8009 30.4117 4.31923C39.1644 2.99807 44.6555 8.86072 46.3069 11.9572H30.4117V12.3701V30.536Z" fill="#DFFAFF"/>
<path d="M50.1623 50.1622L68.5347 49.9741C76.9502 47.7336 79.3553 38.7536 79.8884 34.2669C82.572 44.5885 78.3561 52.9412 76.2317 55.6158C70.599 60.6901 65.0036 62.4414 61.9289 62.1352C62.8333 72.7585 54.0843 76.5853 49.7493 76.5853C40.8399 77.8258 35.712 72.2502 34.6799 68.9473L50.085 68.6308L50.089 68.2162L50.1623 50.1622Z" fill="#DFFAFF"/>
</svg>
